<?xml version="1.0" encoding="UTF-8" standalone="no"?>
<!-- Created with Inkscape (http://www.inkscape.org/) -->

<svg
   width="51.5mm"
   height="51.5mm"
   viewBox="0 0 51.5 51.5"
   version="1.1"
   id="svg1"
   inkscape:version="1.4.2 (f4327f4, 2025-05-13)"
   xmlns:inkscape="http://www.inkscape.org/namespaces/inkscape"
   xmlns:sodipodi="http://sodipodi.sourceforge.net/DTD/sodipodi-0.dtd"
   xmlns="http://www.w3.org/2000/svg"
   xmlns:svg="http://www.w3.org/2000/svg">
  <sodipodi:namedview
     id="namedview1"
     pagecolor="#ffffff"
     bordercolor="#000000"
     borderopacity="0.25"
     inkscape:showpageshadow="2"
     inkscape:pageopacity="0.0"
     inkscape:pagecheckerboard="0"
     inkscape:deskcolor="#d1d1d1"
     inkscape:document-units="mm"
     inkscape:zoom="2.8548345"
     inkscape:cx="100.8815"
     inkscape:cy="116.4691"
     inkscape:window-width="2542"
     inkscape:window-height="1333"
     inkscape:window-x="2560"
     inkscape:window-y="0"
     inkscape:window-maximized="0"
     inkscape:current-layer="layer1" />
  <defs
     id="defs1" />
  <g
     inkscape:label="Ebene 1"
     inkscape:groupmode="layer"
     id="layer1"
     transform="translate(-65.342232,-86.444183)">
    <circle
       style="fill:#55ddff;fill-opacity:1;stroke:#000000;stroke-width:1.5;stroke-dasharray:none;stroke-opacity:1"
       id="path1"
       cx="91.092232"
       cy="112.19418"
       r="25"
       fill="param(fill) #55ddff" />
    <path
       style="fill:none;fill-opacity:1;stroke:#000000;stroke-width:5.5;stroke-dasharray:none;stroke-opacity:1"
       d="m 76.939543,126.39224 c -0.215504,-0.0329 -0.437909,-0.20581 -0.521424,-0.40569 -0.05971,-0.14289 -0.07129,-1.42513 -0.07129,-7.89447 v -7.72386 l -0.963733,0.9562 c -0.530054,0.5259 -1.020923,0.99405 -1.090818,1.04031 -0.373053,0.24698 -0.97095,-0.0404 -1.058837,-0.50881 -0.07643,-0.40742 -0.428122,-0.0354 8.783786,-9.28861 9.414528,-9.456605 8.828902,-8.902187 9.273693,-8.779373 0.156921,0.0434 0.875833,0.737563 4.034036,3.895551 l 3.843082,3.842822 v -1.611187 c 0,-1.783411 0.0082,-1.835481 0.324659,-2.050738 0.169208,-0.115115 0.179353,-0.115684 2.202333,-0.115684 2.02733,0 2.03275,2.84e-4 2.20698,0.11668 0.37372,0.249651 0.35437,-0.0015 0.35447,4.611279 l 8e-5,4.1369 2.33509,2.3394 c 2.07351,2.07734 2.33912,2.36156 2.371,2.53711 0.0985,0.54188 -0.37398,1.01124 -0.88937,0.8836 -0.0896,-0.0222 -0.52403,-0.41543 -1.18253,-1.07054 l -1.04082,-1.03545 v 7.80071 c 0,8.59466 0.0244,7.96964 -0.32047,8.21561 v 0 l -5.46194,0.11967 h -5.294106 l -0.172864,-0.12323 c -0.332383,-0.23705 -0.315434,0.0904 -0.315434,-6.09434 v -5.62986 h -3.186738 -3.186747 v 5.65645 c 0,6.23027 0.02126,5.8276 -0.320468,6.07134 l -0.167824,0.11967 -5.165611,0.006 c -2.841086,0.003 -5.234265,-0.005 -5.318185,-0.0175 z"
       id="path1-5"
       sodipodi:nodetypes="csscsssssscssssscsssscsscccsscccsscccc" />
  </g>
</svg>
